<svg width="63" height="48" viewBox="0 0 63 48" fill="none" xmlns="http://www.w3.org/2000/svg">
<path d="M62.5938 12.2531L62.5156 11.7281L62.4344 11.7469C61.8791 9.15011 60.5999 6.76365 58.7448 4.8636C56.8897 2.96355 54.5346 1.62758 51.9519 1.01026C49.3691 0.392946 46.6644 0.51952 44.1506 1.37534C41.6369 2.23115 39.4168 3.78123 37.7472 5.84623C36.0777 7.91122 35.027 10.4067 34.7166 13.044C34.4063 15.6813 34.849 18.3525 35.9935 20.7487C37.1381 23.1448 38.9377 25.1679 41.1841 26.5839C43.4306 27.9999 46.032 28.7509 48.6875 28.75C49.3844 28.75 50.0531 28.6438 50.7188 28.5469C50.5031 29.2719 50.2812 30.0094 49.925 30.6719C49.5687 31.6344 49.0125 32.4687 48.4594 33.3094C47.9969 34.2187 47.1812 34.8344 46.5812 35.6125C45.9531 36.3687 45.0969 36.8719 44.4188 37.5C43.7531 38.1562 42.8812 38.4844 42.1875 38.9469C41.4625 39.3625 40.8312 39.8219 40.1562 40.0406L38.4719 40.7344L36.9906 41.35L38.5031 47.4094L40.3687 46.9594C40.9656 46.8094 41.6937 46.6344 42.5219 46.425C43.3687 46.2687 44.2719 45.8406 45.2781 45.45C46.2688 45.0031 47.4219 44.7063 48.4906 43.9906C49.5656 43.3094 50.8063 42.7406 51.9 41.8281C52.9594 40.8875 54.2375 40.0719 55.1813 38.8781C56.2125 37.7594 57.2313 36.5844 58.0219 35.2469C58.9375 33.9719 59.5594 32.5719 60.2156 31.1875C60.8094 29.8031 61.2875 28.3875 61.6781 27.0125C62.4188 24.2563 62.75 21.6375 62.8781 19.3969C62.9844 17.1531 62.9219 15.2875 62.7906 13.9375C62.7467 13.3737 62.681 12.8118 62.5938 12.2531ZM28.2187 12.2531L28.1406 11.7281L28.0594 11.7469C27.5041 9.15011 26.2249 6.76365 24.3698 4.8636C22.5147 2.96355 20.1596 1.62758 17.5769 1.01026C14.9941 0.392946 12.2894 0.51952 9.77562 1.37534C7.26184 2.23115 5.04175 3.78123 3.37222 5.84623C1.70269 7.91122 0.651968 10.4067 0.341618 13.044C0.0312679 15.6813 0.473979 18.3525 1.61853 20.7487C2.76308 23.1448 4.56268 25.1679 6.80912 26.5839C9.05556 27.9999 11.657 28.7509 14.3125 28.75C15.0094 28.75 15.6781 28.6438 16.3437 28.5469C16.1281 29.2719 15.9062 30.0094 15.55 30.6719C15.1937 31.6344 14.6375 32.4687 14.0844 33.3094C13.6219 34.2187 12.8062 34.8344 12.2062 35.6125C11.5781 36.3687 10.7219 36.8719 10.0437 37.5C9.37811 38.1562 8.50623 38.4844 7.81248 38.9469C7.08748 39.3625 6.45623 39.8219 5.78123 40.0406L4.09685 40.7344C3.15623 41.1187 2.61873 41.3438 2.61873 41.3438L4.13123 47.4031L5.99685 46.9531C6.59373 46.8031 7.32186 46.6281 8.14998 46.4187C8.99686 46.2625 9.89998 45.8344 10.9062 45.4437C11.8969 44.9969 13.05 44.7 14.1187 43.9844C15.1937 43.3031 16.4344 42.7344 17.5281 41.8219C18.5875 40.8813 19.8656 40.0656 20.8094 38.8719C21.8406 37.7531 22.8594 36.5781 23.65 35.2406C24.5656 33.9656 25.1875 32.5656 25.8437 31.1812C26.4375 29.7969 26.9156 28.3813 27.3062 27.0063C28.0469 24.25 28.3781 21.6313 28.5062 19.3906C28.6125 17.1469 28.55 15.2813 28.4187 13.9313C28.3721 13.3697 28.3054 12.8099 28.2187 12.2531Z" fill="white"/>
</svg>
